<svg xmlns="http://www.w3.org/2000/svg" xmlns:xlink="http://www.w3.org/1999/xlink" width="500" zoomAndPan="magnify" viewBox="0 0 375 374.999991" height="500" preserveAspectRatio="xMidYMid meet" version="1.0"><defs><clipPath id="99b81456e2"><path d="M 317 299 L 375 299 L 375 355.433594 L 317 355.433594 Z M 317 299 " clip-rule="nonzero"/></clipPath><clipPath id="ec5c940649"><path d="M 187 19.433594 L 260 19.433594 L 260 91 L 187 91 Z M 187 19.433594 " clip-rule="nonzero"/></clipPath></defs><g clip-path="url(#99b81456e2)"><path fill="#1d1d1b" d="M 369.070312 324.347656 C 367.507812 323.996094 365.976562 323.488281 364.480469 323.007812 C 358.609375 321.160156 354.910156 317.332031 353.921875 311.148438 C 353.570312 308.917969 353.378906 306.652344 353.15625 304.421875 C 352.835938 301.617188 351.148438 299.796875 348.53125 299.542969 C 345.917969 299.289062 343.875 300.722656 343.046875 303.433594 C 342.472656 305.3125 341.929688 307.226562 341.324219 309.109375 C 339.441406 314.847656 335.613281 318.417969 329.585938 319.40625 C 327.257812 319.789062 324.898438 319.914062 322.570312 320.203125 C 320.019531 320.523438 318.199219 322.242188 317.945312 324.601562 C 317.660156 327.183594 318.871094 329.160156 321.390625 330.085938 C 323.015625 330.660156 324.707031 331.171875 326.398438 331.617188 C 331.945312 333.113281 335.964844 336.335938 337.433594 342.042969 C 338.132812 344.785156 338.230469 347.714844 338.582031 350.554688 C 338.898438 353.328125 340.6875 355.175781 343.269531 355.398438 C 345.757812 355.625 347.863281 354.125 348.691406 351.542969 C 349.167969 350.074219 349.617188 348.578125 350 347.078125 C 351.753906 340.605469 355.707031 336.460938 362.46875 335.410156 C 364.320312 335.125 366.199219 334.898438 368.082031 334.804688 C 370.699219 334.707031 372.578125 333.625 373.695312 331.265625 C 374.238281 330.179688 374.078125 329.320312 373.953125 328.714844 C 373.152344 326.324219 371.558594 324.890625 369.101562 324.316406 Z M 369.070312 324.347656 " fill-opacity="1" fill-rule="nonzero"/></g><g clip-path="url(#ec5c940649)"><path fill="#1d1d1b" d="M 191.679688 58.039062 C 193.910156 58.773438 196.175781 59.476562 198.441406 60.113281 C 207.050781 62.566406 212.25 68.050781 213.558594 77.011719 C 213.972656 79.976562 214.164062 83.003906 214.578125 86 C 214.960938 88.773438 217.035156 90.65625 219.808594 90.941406 C 222.773438 91.230469 225.167969 89.699219 226.125 86.828125 C 227.015625 84.085938 227.75 81.3125 228.644531 78.605469 C 231.164062 71.113281 236.234375 66.488281 244.078125 65.117188 C 247.269531 64.542969 250.523438 64.386719 253.742188 63.96875 C 256.742188 63.585938 258.6875 61.578125 259.007812 58.742188 C 259.324219 55.777344 257.824219 53.417969 254.890625 52.429688 C 252.308594 51.570312 249.660156 50.804688 247.078125 50.007812 C 239.390625 47.582031 234.574219 42.480469 233.140625 34.480469 C 232.566406 31.261719 232.40625 27.945312 231.992188 24.660156 C 231.609375 21.726562 229.503906 19.78125 226.632812 19.496094 C 223.796875 19.242188 221.433594 20.675781 220.476562 23.417969 C 219.585938 26 218.851562 28.613281 218.054688 31.226562 C 215.597656 39.101562 210.433594 43.949219 202.234375 45.351562 C 199.078125 45.894531 195.886719 46.054688 192.699219 46.46875 C 189.699219 46.882812 187.785156 48.890625 187.5 51.757812 C 187.214844 54.660156 188.777344 57.050781 191.679688 58.039062 Z M 191.679688 58.039062 " fill-opacity="1" fill-rule="nonzero"/></g><path fill="#1d1d1b" d="M 32.6875 258.703125 C 32.019531 258.382812 31.285156 258.160156 30.582031 257.9375 C 26.785156 256.695312 24.457031 254.175781 23.851562 250.191406 C 23.726562 249.296875 23.628906 248.40625 23.40625 247.542969 C 22.929688 245.632812 21.523438 244.484375 19.578125 244.324219 C 17.1875 244.132812 15.496094 245.472656 14.699219 248.308594 C 13.519531 252.519531 10.839844 254.972656 6.503906 255.640625 C 5.609375 255.769531 4.714844 255.832031 3.855469 256.089844 C 2.230469 256.535156 0.890625 258.160156 0.855469 259.820312 C 0.824219 261.574219 1.367188 263.101562 3.058594 263.933594 C 3.949219 264.378906 4.875 264.664062 5.800781 264.984375 C 9.339844 266.257812 11.476562 268.714844 12.085938 272.445312 C 12.242188 273.402344 12.339844 274.421875 12.59375 275.34375 C 13.199219 277.546875 15.242188 278.757812 17.472656 278.375 C 19.707031 277.992188 20.664062 276.429688 21.207031 274.453125 C 22.417969 270.148438 25.160156 267.628906 29.6875 267.121094 C 30.421875 267.023438 31.1875 266.929688 31.890625 266.738281 C 33.613281 266.257812 34.886719 264.664062 35.046875 262.976562 C 35.175781 261.222656 34.25 259.53125 32.589844 258.734375 Z M 32.6875 258.703125 " fill-opacity="1" fill-rule="nonzero"/><path fill="#1d1d1b" d="M 349.359375 215.726562 C 349.359375 213.621094 349.265625 211.550781 349.105469 209.476562 C 349.234375 191.402344 348.53125 75.894531 309.300781 40.824219 C 308.089844 37.953125 305.15625 35.5625 299.414062 37.699219 C 293.675781 39.804688 264.90625 91.039062 259.675781 114.695312 C 240.445312 108.347656 219.140625 104.8125 196.652344 104.8125 C 174.167969 104.8125 152.003906 108.507812 132.484375 115.078125 C 125.976562 90.527344 98.867188 42.546875 93.347656 40.503906 C 87.609375 38.371094 84.675781 40.761719 83.460938 43.628906 C 40.851562 81.726562 43.691406 214.675781 43.691406 214.675781 C 43.785156 214.546875 43.882812 214.417969 43.976562 214.261719 C 43.976562 214.769531 43.914062 215.25 43.914062 215.726562 C 43.914062 277.003906 112.292969 326.707031 196.652344 326.707031 C 281.011719 326.707031 349.394531 277.035156 349.394531 215.726562 Z M 228.929688 193.886719 C 230.683594 192.835938 232.503906 192.101562 234.191406 190.921875 C 238.625 187.894531 240.699219 181.453125 240.636719 172.050781 C 240.636719 168.957031 240.21875 163.121094 240.253906 160.03125 C 240.253906 156.746094 241.367188 154.671875 243.058594 154.480469 C 244.78125 154.289062 246.34375 156.140625 247.109375 159.390625 C 247.96875 163.027344 248.992188 169.464844 249.917969 173.039062 C 252.246094 181.867188 255.976562 186.808594 260.855469 188.214844 C 262.515625 188.691406 264.171875 189.074219 265.832031 189.617188 C 267.710938 190.222656 269.402344 189.582031 269.785156 192.996094 C 270.136719 196.277344 268.351562 196.597656 266.722656 197.554688 C 264.9375 198.605469 263.089844 199.371094 261.367188 200.550781 C 257.125 203.484375 254.765625 206.960938 254.699219 215.917969 C 254.699219 219.171875 254.796875 222.453125 254.796875 225.738281 C 254.796875 229.179688 253.710938 231.347656 251.925781 231.539062 C 250.265625 231.699219 248.734375 229.945312 248.003906 226.851562 C 247.207031 223.539062 246.535156 220.125 245.738281 216.84375 C 243.3125 206.863281 239.582031 204.28125 234.160156 203.007812 C 232.726562 202.65625 231.320312 202.304688 229.886719 201.859375 C 228.035156 201.285156 226.125 201.378906 225.742188 198.03125 C 225.359375 194.714844 227.273438 194.90625 228.929688 193.886719 Z M 212.027344 241.773438 C 212.34375 244.324219 208.101562 250.253906 205.105469 250.605469 C 202.265625 250.957031 197.609375 246.046875 197.292969 243.558594 C 196.972656 240.945312 211.769531 239.511719 212.027344 241.773438 Z M 131.527344 206.386719 C 133.28125 205.332031 135.097656 204.601562 136.789062 203.421875 C 141.222656 200.390625 143.296875 193.953125 143.230469 184.546875 C 143.230469 181.453125 142.816406 175.621094 142.847656 172.527344 C 142.847656 169.242188 143.964844 167.171875 145.65625 166.980469 C 147.378906 166.789062 148.941406 168.636719 149.707031 171.890625 C 150.566406 175.523438 151.585938 181.964844 152.511719 185.535156 C 154.839844 194.367188 158.574219 199.308594 163.453125 200.710938 C 165.109375 201.1875 166.769531 201.570312 168.425781 202.113281 C 170.308594 202.71875 172 202.082031 172.382812 205.492188 C 172.734375 208.777344 170.945312 209.09375 169.320312 210.050781 C 167.535156 211.105469 165.683594 211.867188 163.960938 213.046875 C 159.71875 215.980469 157.359375 219.457031 157.296875 228.414062 C 157.296875 231.667969 157.390625 234.953125 157.390625 238.234375 C 157.390625 241.679688 156.308594 243.847656 154.523438 244.039062 C 152.863281 244.195312 151.332031 242.445312 150.597656 239.351562 C 149.800781 236.035156 149.132812 232.625 148.335938 229.339844 C 145.910156 219.359375 142.179688 216.777344 136.757812 215.503906 C 135.320312 215.152344 133.917969 214.800781 132.484375 214.355469 C 130.632812 213.78125 128.71875 213.878906 128.335938 210.53125 C 127.953125 207.214844 129.867188 207.40625 131.527344 206.386719 Z M 213.144531 310 C 96.601562 324.058594 72.171875 243.050781 72.011719 242.476562 C 72.011719 242.347656 71.660156 239.511719 71.277344 236.386719 C 86.9375 260.742188 117.429688 275.1875 141.574219 277.097656 C 162.429688 278.757812 193.71875 270.308594 206.605469 255.515625 C 222.296875 266.546875 253.136719 266.003906 274.632812 258.925781 C 298.011719 251.210938 321.136719 239.128906 333.414062 204.121094 C 333.828125 207.4375 334.210938 210.625 334.210938 210.625 C 334.179688 211.519531 329.714844 295.941406 213.175781 310 Z M 213.144531 310 " fill-opacity="1" fill-rule="nonzero"/></svg>